<svg xmlns:xlink="http://www.w3.org/1999/xlink" xmlns="http://www.w3.org/2000/svg" width="1258" height="411" viewBox="0 0 1258 411" fill="none">
<path d="M1 410C29.806 363.785 120.157 264.376 248.732 264.376C366.837 264.376 432.06 398.964 562.889 371.253C713.269 339.401 851.205 1.00017 1132.06 1" stroke="#56CCF2" stroke-width="2" stroke-linecap="round"/>
<path fill-rule="evenodd" clip-rule="evenodd" d="M624.672 182.986C646.023 155.638 668.643 130.192 697.788 111.098C751.789 75.7199 816.831 85.4309 881.002 103.789C897.059 108.382 913.083 113.524 928.882 118.649C930.636 119.218 932.387 119.786 934.134 120.354C948.138 124.902 961.946 129.386 975.446 133.417C1005.83 142.49 1034.55 149.235 1060.23 149.235C1116.08 149.235 1143.73 146.155 1180.63 107.868C1215.24 71.9668 1240.28 31.6204 1253.65 10.0587C1254.54 8.63494 1255.37 7.29313 1256.15 6.0399C1256.44 5.57135 1257.06 5.42829 1257.53 5.72035C1258 6.01241 1258.14 6.62902 1257.85 7.09757C1257.07 8.35224 1256.23 9.69676 1255.35 11.1244C1241.97 32.6861 1216.84 73.1954 1182.07 109.256C1145.03 147.688 1116.88 151.235 1060.23 151.235C1034.24 151.235 1005.29 144.415 974.874 135.333C961.35 131.295 947.518 126.803 933.518 122.256C931.769 121.688 930.018 121.119 928.265 120.551C912.466 115.426 896.472 110.294 880.452 105.711C816.31 87.3617 752.076 77.9223 698.884 112.77C670.017 131.682 647.56 156.919 626.248 184.217C619.538 192.811 612.936 201.618 606.283 210.494C591.835 229.768 577.143 249.367 560.568 267.827C536.33 294.822 507.995 319.473 470.294 337.367C432.593 355.262 385.58 366.375 324.018 366.375C254.306 366.375 201.556 329.321 162.185 283.392C122.821 237.472 96.7419 182.582 80.3567 146.69C80.1274 146.188 80.3486 145.595 80.8509 145.365C81.3532 145.136 81.9461 145.357 82.1754 145.86C98.5571 181.744 124.539 236.404 163.703 282.091C202.858 327.768 255.101 364.376 324.018 364.376C385.331 364.375 432.043 353.31 469.437 335.561C506.831 317.812 534.961 293.355 559.081 266.491C575.596 248.097 590.196 228.619 604.616 209.382C611.283 200.488 617.911 191.646 624.672 182.986Z" fill="#1D3DFB"/>
<ellipse cx="87.9718" cy="157.954" rx="19.9935" ry="19.9942" fill="#1D3DFB"/>
<ellipse cx="883.714" cy="185.945" rx="19.9935" ry="19.9942" fill="#1D3DFB"/>
<ellipse cx="283.908" cy="315.907" rx="9.99676" ry="9.99709" fill="#56CCF2"/>
<ellipse cx="1065.65" cy="82.9756" rx="9.99676" ry="9.99709" fill="#56CCF2"/>
</svg>