<svg width="24" height="24" viewBox="0 0 24 24" fill="none" xmlns="http://www.w3.org/2000/svg">
<path d="M21.75 14.2159V6.26214C21.7491 5.96093 21.6841 5.66336 21.5593 5.38922C21.4345 5.11508 21.2528 4.87063 21.0262 4.67214C20.6443 4.34125 20.1553 4.16006 19.65 4.16214H2.1C1.59571 4.1596 1.10777 4.34091 0.7275 4.67214C0.499701 4.86982 0.316901 5.11401 0.191411 5.38828C0.0659202 5.66255 0.000651646 5.96052 0 6.26214L0 17.7371C0.000909963 18.0383 0.0659188 18.3359 0.190706 18.6101C0.315493 18.8842 0.4972 19.1286 0.72375 19.3271C1.1057 19.658 1.59466 19.8392 2.1 19.8371H14.9288C15.2655 20.7281 15.865 21.4956 16.6479 22.0381C17.4308 22.5806 18.36 22.8723 19.3125 22.8746V21.3746C18.6786 21.3776 18.0581 21.1915 17.5305 20.84C17.0029 20.4886 16.5921 19.9878 16.3505 19.4016C16.109 18.8155 16.0477 18.1706 16.1745 17.5495C16.3014 16.9284 16.6105 16.3592 17.0625 15.9146C17.3654 15.6135 17.7264 15.3771 18.1235 15.2198C18.5206 15.0625 18.9455 14.9876 19.3725 14.9996C20.2233 15.0366 21.0261 15.4041 21.6102 16.0239C22.1943 16.6437 22.5135 17.4669 22.5 18.3184V19.6871C22.5 19.7866 22.4605 19.882 22.3902 19.9523C22.3198 20.0226 22.2245 20.0621 22.125 20.0621C22.0255 20.0621 21.9302 20.0226 21.8598 19.9523C21.7895 19.882 21.75 19.7866 21.75 19.6871V18.1871C21.7516 17.6555 21.5799 17.1379 21.2608 16.7126C20.9418 16.2873 20.4929 15.9776 19.982 15.8304C19.4712 15.6832 18.9263 15.7065 18.4299 15.8968C17.9335 16.0871 17.5126 16.434 17.2311 16.885C16.9495 17.3359 16.8226 17.8663 16.8696 18.3959C16.9165 18.9254 17.1348 19.4252 17.4914 19.8196C17.8479 20.2139 18.3233 20.4813 18.8454 20.5813C19.3676 20.6812 19.908 20.6082 20.385 20.3734C20.5469 20.7766 20.8438 21.1111 21.2249 21.3197C21.6061 21.5283 22.0479 21.598 22.4747 21.517C22.9016 21.436 23.2871 21.2092 23.5653 20.8754C23.8435 20.5417 23.9972 20.1216 24 19.6871V18.3184C23.9991 17.5007 23.7925 16.6965 23.3994 15.9796C23.0062 15.2627 22.439 14.6562 21.75 14.2159V14.2159ZM18.81 5.66214L12.0975 11.0659C11.7502 11.3427 11.3192 11.4935 10.875 11.4935C10.4308 11.4935 9.99982 11.3427 9.6525 11.0659L2.94 5.66214H18.81ZM20.25 13.6009C19.9701 13.5404 19.6851 13.5065 19.3987 13.4996C18.1848 13.4757 17.0097 13.928 16.125 14.7596L13.7213 13.0721L12.8588 14.3021L15.1987 15.9409C14.8224 16.6309 14.6263 17.4049 14.6287 18.1909V18.3409H3.13125L8.895 14.3021L8.03625 13.0721L1.5 17.6471V6.42714L8.71125 12.2321C9.32579 12.7226 10.0887 12.9897 10.875 12.9897C11.6613 12.9897 12.4242 12.7226 13.0388 12.2321L20.25 6.42714V13.6009ZM19.3125 19.1246C19.1271 19.1246 18.9458 19.0697 18.7917 18.9666C18.6375 18.8636 18.5173 18.7172 18.4464 18.5459C18.3754 18.3746 18.3568 18.1861 18.393 18.0042C18.4292 17.8224 18.5185 17.6553 18.6496 17.5242C18.7807 17.3931 18.9477 17.3038 19.1296 17.2677C19.3115 17.2315 19.5 17.25 19.6713 17.321C19.8426 17.392 19.989 17.5121 20.092 17.6663C20.195 17.8205 20.25 18.0017 20.25 18.1871C20.25 18.4358 20.1512 18.6742 19.9754 18.85C19.7996 19.0259 19.5611 19.1246 19.3125 19.1246V19.1246Z" fill="#3C3E41"/>
</svg>
