<svg width="45" height="45" viewBox="0 0 45 45" fill="none" xmlns="http://www.w3.org/2000/svg">
<path d="M28.374 15.306C28.1129 15.306 27.8578 15.3834 27.6406 15.5285C27.4236 15.6735 27.2544 15.8797 27.1545 16.1209C27.0546 16.3621 27.0284 16.6275 27.0794 16.8835C27.1303 17.1396 27.256 17.3748 27.4407 17.5594C27.6252 17.744 27.8604 17.8697 28.1165 17.9206C28.3726 17.9716 28.6379 17.9454 28.8792 17.8455C29.1204 17.7456 29.3266 17.5764 29.4716 17.3594C29.6166 17.1423 29.694 16.8871 29.694 16.626C29.694 16.2759 29.5549 15.9402 29.3074 15.6926C29.0599 15.4451 28.7241 15.306 28.374 15.306ZM33.434 17.968C33.4126 17.0553 33.2417 16.1524 32.928 15.295C32.6483 14.5615 32.213 13.8972 31.652 13.348C31.1074 12.7842 30.4416 12.3516 29.705 12.083C28.8499 11.7598 27.946 11.5849 27.032 11.566C25.866 11.5 25.4919 11.5 22.5 11.5C19.508 11.5 19.134 11.5 17.968 11.566C17.0541 11.5849 16.1501 11.7598 15.295 12.083C14.5598 12.3543 13.8946 12.7865 13.348 13.348C12.7842 13.8927 12.3516 14.5585 12.083 15.295C11.7598 16.1501 11.5849 17.0541 11.566 17.968C11.5 19.134 11.5 19.508 11.5 22.5C11.5 25.4921 11.5 25.866 11.566 27.032C11.5849 27.946 11.7598 28.8499 12.083 29.705C12.3516 30.4415 12.7842 31.1074 13.348 31.652C13.8946 32.2135 14.5598 32.6457 15.295 32.9171C16.1501 33.2402 17.0541 33.4151 17.968 33.434C19.134 33.5 19.508 33.5 22.5 33.5C25.4919 33.5 25.866 33.5 27.032 33.434C27.946 33.4151 28.8499 33.2402 29.705 32.9171C30.4416 32.6485 31.1074 32.2159 31.652 31.652C32.2155 31.1048 32.6512 30.4401 32.928 29.705C33.2417 28.8476 33.4126 27.9448 33.434 27.032C33.434 25.866 33.5 25.4921 33.5 22.5C33.5 19.508 33.5 19.134 33.434 17.968ZM31.454 26.9C31.4459 27.5983 31.3195 28.2901 31.08 28.946C30.9043 29.4247 30.6223 29.8573 30.255 30.2111C29.8982 30.5746 29.4666 30.8562 28.99 31.0361C28.334 31.2755 27.6422 31.402 26.9439 31.41C25.844 31.4651 25.437 31.476 22.544 31.476C19.651 31.476 19.244 31.476 18.144 31.41C17.419 31.4236 16.6971 31.312 16.01 31.08C15.5544 30.8909 15.1425 30.6101 14.8 30.255C14.4349 29.9017 14.1563 29.4687 13.986 28.9901C13.7174 28.3247 13.5685 27.6171 13.546 26.9C13.546 25.8 13.48 25.3931 13.48 22.5C13.48 19.607 13.48 19.2 13.546 18.1C13.5509 17.3862 13.6812 16.6788 13.931 16.01C14.1247 15.5457 14.4219 15.1318 14.8 14.8C15.1342 14.4218 15.5472 14.1214 16.01 13.92C16.6805 13.6781 17.3872 13.5516 18.1 13.546C19.2 13.546 19.607 13.48 22.5 13.48C25.3929 13.48 25.8 13.48 26.9 13.546C27.5983 13.554 28.2901 13.6805 28.946 13.92C29.4459 14.1055 29.8945 14.4071 30.255 14.8C30.6155 15.1379 30.8971 15.551 31.08 16.01C31.3245 16.6798 31.4511 17.387 31.454 18.1C31.509 19.2 31.52 19.607 31.52 22.5C31.52 25.3931 31.509 25.8 31.454 26.9ZM22.5 16.857C21.3844 16.8592 20.2945 17.192 19.3679 17.8134C18.4414 18.4348 17.7198 19.3168 17.2944 20.3481C16.869 21.3795 16.7588 22.5137 16.9778 23.6076C17.1968 24.7015 17.7351 25.706 18.5247 26.4941C19.3143 27.2823 20.3198 27.8186 21.4141 28.0354C22.5085 28.2522 23.6425 28.1399 24.673 27.7124C25.7035 27.285 26.5841 26.5617 27.2037 25.634C27.8233 24.7063 28.154 23.6157 28.154 22.5C28.1554 21.7576 28.0101 21.0223 27.7263 20.3363C27.4426 19.6503 27.0261 19.0271 26.5006 18.5027C25.9751 17.9782 25.3511 17.5629 24.6646 17.2804C23.978 16.998 23.2424 16.8541 22.5 16.857ZM22.5 26.163C21.7755 26.163 21.0673 25.9481 20.4649 25.5457C19.8626 25.1432 19.3931 24.5711 19.1158 23.9017C18.8386 23.2325 18.7661 22.496 18.9074 21.7854C19.0487 21.0749 19.3976 20.4222 19.9099 19.9099C20.4222 19.3976 21.0748 19.0487 21.7854 18.9074C22.4959 18.7661 23.2325 18.8386 23.9017 19.1158C24.5711 19.3931 25.1432 19.8626 25.5457 20.465C25.9481 21.0673 26.163 21.7756 26.163 22.5C26.163 22.981 26.0683 23.4574 25.8841 23.9017C25.7001 24.3462 25.4303 24.75 25.0901 25.0901C24.75 25.4303 24.3462 25.7001 23.9017 25.8842C23.4573 26.0682 22.981 26.163 22.5 26.163Z" fill="#1D3DFB"/>
<rect x="1" y="1" width="43" height="43" rx="21.5" stroke="#1D3DFB" stroke-opacity="0.05" stroke-width="2"/>
</svg>
