<svg width="45" height="45" viewBox="0 0 45 45" fill="none" xmlns="http://www.w3.org/2000/svg">
<path fill-rule="evenodd" clip-rule="evenodd" d="M31.5 31.5H27.9V25.2009C27.9 23.4729 27.1377 22.509 25.7706 22.509C24.2829 22.509 23.4 23.5134 23.4 25.2009V31.5H19.8V19.8H23.4V21.1158C23.4 21.1158 24.5295 19.134 27.0747 19.134C29.6208 19.134 31.5 20.6874 31.5 23.9022V31.5ZM15.6978 17.9289C15.4081 17.9278 15.1214 17.8697 14.8541 17.7578C14.5868 17.6459 14.3442 17.4824 14.1401 17.2768C13.936 17.0711 13.7744 16.8272 13.6646 16.5591C13.5547 16.2909 13.4988 16.0038 13.5 15.714C13.499 15.4243 13.555 15.1373 13.6648 14.8692C13.7747 14.6012 13.9363 14.3574 14.1404 14.1518C14.3445 13.9462 14.587 13.7828 14.8543 13.671C15.1215 13.5592 15.4081 13.5011 15.6978 13.5C16.2827 13.5024 16.8427 13.737 17.2547 14.1521C17.6666 14.5673 17.8969 15.1291 17.8947 15.714C17.896 16.0037 17.8402 16.2908 17.7305 16.559C17.6208 16.8271 17.4593 17.071 17.2553 17.2767C17.0512 17.4824 16.8087 17.6459 16.5414 17.7578C16.2742 17.8697 15.9875 17.9278 15.6978 17.9289ZM13.5 31.5H18V19.8H13.5V31.5Z" fill="#1D3DFB"/>
<rect x="1" y="1" width="43" height="43" rx="21.5" stroke="#1D3DFB" stroke-opacity="0.05" stroke-width="2"/>
</svg>
