<svg width="24" height="24" viewBox="0 0 24 24" fill="none" xmlns="http://www.w3.org/2000/svg">
<path d="M11.9997 1.85156C7.78826 1.85156 4.38867 5.25115 4.38867 9.46258C4.38867 14.5366 11.9997 22.1476 11.9997 22.1476C11.9997 22.1476 19.6107 14.5366 19.6107 9.46258C19.6107 5.25115 16.2111 1.85156 11.9997 1.85156ZM11.9997 4.38857C13.3454 4.38857 14.636 4.92315 15.5876 5.87471C16.5391 6.82627 17.0737 8.11687 17.0737 9.46258C17.0737 12.2787 14.8158 14.5366 11.9997 14.5366C10.654 14.5366 9.36338 14.002 8.41182 13.0504C7.46026 12.0989 6.92568 10.8083 6.92568 9.46258C6.92568 8.11687 7.46026 6.82627 8.41182 5.87471C9.36338 4.92315 10.654 4.38857 11.9997 4.38857V4.38857Z" fill="#3C3E41"/>
</svg>
