<svg width="100" height="100" viewBox="0 0 100 100" fill="none" xmlns="http://www.w3.org/2000/svg">
<path d="M88.3327 56.666V43.3327H80.9494C80.1696 39.6021 78.7182 36.0442 76.666 32.8327L81.8994 27.5994L72.3993 18.1827L67.166 23.416C63.9604 21.3345 60.4023 19.8548 56.666 19.0493V11.666H43.3327V19.0493C39.5964 19.8548 36.0383 21.3345 32.8327 23.416L27.5994 18.1827L18.1827 27.5994L23.416 32.8327C21.3345 36.0383 19.8548 39.5964 19.0493 43.3327H11.666V56.666H19.0493C19.8548 60.4023 21.3345 63.9604 23.416 67.166L18.1827 72.3993L27.5994 81.816L32.8327 76.666C36.0442 78.7182 39.6021 80.1696 43.3327 80.9494V88.3327H56.666V80.9494C60.3966 80.1696 63.9545 78.7182 67.166 76.666L72.3993 81.8994L81.816 72.4827L76.666 67.166C78.7182 63.9545 80.1696 60.3966 80.9494 56.666H88.3327Z" fill="#FF014F"/>
<path d="M90 58.3333V41.6667H82.2667C81.4923 38.6504 80.2913 35.7601 78.7 33.0833L84.1833 27.6L72.4 15.8167L66.9167 21.3C64.2413 19.7058 61.3506 18.5046 58.3333 17.7333V10H41.6667V17.7333C38.6494 18.5046 35.7587 19.7058 33.0833 21.3L27.6 15.8167L15.8167 27.6L21.3 33.0833C19.7087 35.7601 18.5077 38.6504 17.7333 41.6667H10V58.3333H17.7333C18.5077 61.3496 19.7087 64.2399 21.3 66.9167L15.8167 72.4L27.6 84.1833L33.0833 78.7C35.7587 80.2942 38.6494 81.4954 41.6667 82.2667V90H58.3333V82.2667C61.3506 81.4954 64.2413 80.2942 66.9167 78.7L72.4 84.1833L84.1833 72.4L78.7 66.9167C80.2913 64.2399 81.4923 61.3496 82.2667 58.3333H90ZM74.4667 67.3833L79.4667 72.3833L72.4 79.45L67.4 74.45C63.7011 77.0674 59.4649 78.8268 55 79.6V86.6667H45V79.6C40.5403 78.8266 36.3096 77.0671 32.6167 74.45L27.6167 79.45L20.5333 72.4L25.5333 67.4C22.9213 63.6999 21.1676 59.4637 20.4 55H13.3333V45H20.4C21.1624 40.5399 22.9166 36.308 25.5333 32.6167L20.5333 27.6167L27.6 20.55L32.6 25.55C36.2989 22.9326 40.5351 21.1732 45 20.4V13.3333H55V20.4C59.4597 21.1734 63.6904 22.9329 67.3833 25.55L72.3833 20.55L79.45 27.6167L74.45 32.6167C77.0657 36.3104 78.825 40.5408 79.6 45H86.6667V55H79.6C78.8376 59.4601 77.0834 63.692 74.4667 67.3833V67.3833Z" fill="#3C3E41"/>
<path d="M49.9993 73.3327C62.886 73.3327 73.3327 62.886 73.3327 49.9993C73.3327 37.1127 62.886 26.666 49.9993 26.666C37.1127 26.666 26.666 37.1127 26.666 49.9993C26.666 62.886 37.1127 73.3327 49.9993 73.3327Z" fill="white"/>
<path d="M40.4827 57.8507L32.6494 50.0007L40.4827 42.1507L42.8494 44.5174L37.3494 50.0007L42.8494 55.484L40.4827 57.8507ZM59.5161 57.8507L57.1494 55.484L62.6494 50.0007L57.1494 44.5174L59.5161 42.1507L67.3494 50.0007L59.5161 57.8507ZM45.0594 61.209L51.7194 37.874L54.9261 38.789L48.2644 62.1224L45.0594 61.209Z" fill="#3C3E41"/>
</svg>
