<svg width="100" height="100" viewBox="0 0 100 100" fill="none" xmlns="http://www.w3.org/2000/svg">
<path d="M72.4816 8.33301C71.5604 8.33301 70.8149 9.07926 70.8149 9.99967C70.8149 10.7695 70.7726 11.5475 70.6864 12.3133C70.5854 13.228 71.2446 14.0524 72.1593 14.1533C72.2212 14.1606 72.283 14.1639 72.3449 14.1639C73.1831 14.1639 73.9058 13.5332 74.0002 12.6812C74.0978 11.7941 74.1483 10.8916 74.1483 9.99967C74.1483 9.07926 73.4028 8.33301 72.4816 8.33301ZM40.2306 32.0887C41.7638 32.7674 43.3735 33.2866 45.0142 33.6317C45.1297 33.6561 45.2445 33.6675 45.3584 33.6675C46.1299 33.6675 46.8224 33.1287 46.9876 32.3434C47.1772 31.4425 46.6003 30.5588 45.6994 30.37C44.2866 30.0729 42.9007 29.6253 41.5799 29.0402C40.7401 28.6683 39.7537 29.0467 39.381 29.8898C39.0083 30.7313 39.3883 31.7152 40.2306 32.0887ZM54.661 33.6634C54.7749 33.6634 54.8905 33.652 55.006 33.6276C56.6466 33.2817 58.2563 32.7609 59.7895 32.0806C60.6294 31.707 61.0086 30.7215 60.6359 29.8809C60.2616 29.0394 59.2801 28.6553 58.4354 29.0337C57.117 29.6196 55.7303 30.068 54.3192 30.3659C53.4175 30.5555 52.8413 31.4401 53.0317 32.3402C53.1978 33.1255 53.8895 33.6634 54.661 33.6634ZM29.1532 22.1929C29.9995 23.6357 31.0005 24.9964 32.1292 26.2383C32.458 26.5996 32.9097 26.7835 33.363 26.7835C33.7625 26.7835 34.1637 26.6403 34.4836 26.3498C35.1647 25.7313 35.2144 24.6766 34.5959 23.9954C33.6217 22.9253 32.7583 21.751 32.0291 20.5067C31.5612 19.7124 30.5423 19.4438 29.748 19.9118C28.9538 20.3773 28.6877 21.3986 29.1532 22.1929ZM66.6499 26.7705C67.1024 26.7705 67.5548 26.5866 67.8836 26.2236C69.0132 24.981 70.0125 23.6187 70.8556 22.175C71.3195 21.3807 71.0526 20.3602 70.2583 19.8955C69.4591 19.4308 68.4403 19.6994 67.978 20.4937C67.2505 21.7371 66.3895 22.9115 65.4162 23.984C64.7977 24.6652 64.8481 25.7191 65.5301 26.3384C65.8491 26.6281 66.2495 26.7705 66.6499 26.7705ZM29.3118 12.3149C29.2272 11.5516 29.1849 10.7728 29.1849 9.99967C29.1849 9.07926 28.4386 8.33301 27.5182 8.33301C26.5978 8.33301 25.8516 9.07926 25.8516 9.99967C25.8516 10.894 25.9012 11.7957 25.998 12.6795C26.0924 13.5324 26.8143 14.1639 27.6525 14.1639C27.7135 14.1639 27.7754 14.1606 27.8372 14.1541C28.752 14.0532 29.4128 13.2297 29.3118 12.3149Z" fill="#3C3E41"/>
<path d="M71.5998 61.683L65.3663 72.1663H34.6331L28.3997 61.683C27.9331 60.8996 28.183 59.883 28.9664 59.4163C29.133 59.3163 45.9164 48.8829 48.3331 32.3496V56.5163C46.1497 57.2329 44.5664 59.2663 44.5664 61.683C44.5664 64.6997 46.9997 67.1496 49.9997 67.1496C52.9997 67.1496 55.4331 64.6997 55.4331 61.683C55.4331 59.2663 53.8497 57.2329 51.6664 56.5163V32.3496C54.1163 48.9163 70.8664 59.3163 71.033 59.4163C71.8164 59.883 72.0664 60.8996 71.5998 61.683Z" fill="#FF014F"/>
<path d="M65.5667 75.5H34.4167C33.4999 75.5 32.75 76.2333 32.75 77.1667V83C32.75 83.9166 33.4999 84.6667 34.4167 84.6667H36.7602V90C36.7602 90.9204 37.5065 91.6667 38.4269 91.6667H61.5722C62.4934 91.6667 63.2389 90.9204 63.2389 90V84.6667H65.5667C66.5 84.6667 67.2333 83.9166 67.2333 83V77.1667C67.2333 76.2333 66.5 75.5 65.5667 75.5Z" fill="#3C3E41"/>
</svg>
